<svg xmlns="http://www.w3.org/2000/svg" id="a" viewBox="0 0 500 150"><defs><style>.b{fill:#fdfdfd;}.c{fill:#e52d6b;}.d{fill:#261a35;}</style></defs><path class="d" d="M484.72,102.99c-.53,0-1.01-.09-1.46-.28s-.84-.45-1.18-.79c-.34-.34-.6-.73-.78-1.18s-.28-.93-.28-1.45,.09-1,.28-1.45c.19-.45,.45-.84,.79-1.18,.34-.34,.73-.6,1.18-.79,.45-.19,.94-.28,1.46-.28s1.01,.09,1.47,.28c.45,.19,.84,.45,1.18,.78s.59,.73,.78,1.17c.19,.44,.28,.93,.28,1.46s-.09,1.01-.28,1.47c-.19,.45-.45,.85-.79,1.19s-.73,.6-1.18,.79c-.45,.19-.93,.28-1.46,.28Zm-.01-.39c.47,0,.91-.09,1.31-.26,.4-.17,.76-.41,1.06-.71s.54-.66,.71-1.07c.17-.41,.25-.85,.25-1.31s-.08-.9-.25-1.3c-.16-.4-.4-.75-.69-1.05s-.65-.53-1.05-.7c-.4-.16-.84-.25-1.32-.25s-.91,.08-1.31,.25c-.41,.17-.76,.4-1.06,.71s-.53,.66-.7,1.06-.25,.83-.25,1.3,.08,.89,.25,1.3c.17,.4,.4,.76,.7,1.06s.65,.54,1.05,.71c.4,.17,.84,.25,1.3,.25Zm-1.43-1.2v-4.24h1.65c.52,0,.93,.13,1.22,.38,.3,.26,.45,.6,.45,1.02,0,.45-.15,.8-.45,1.05-.3,.25-.71,.38-1.23,.38h-1.09v1.41h-.55Zm.54-1.87h1.07c.37,0,.66-.08,.87-.25,.21-.17,.31-.41,.31-.71s-.1-.53-.31-.7c-.21-.16-.5-.25-.87-.25h-1.07v1.91Zm2.26,1.87l-1.06-1.64h.57l1.06,1.64h-.57Z"></path><g><path class="d" d="M210.62,64.54c-2.86,0-5.37-.56-7.52-1.68-2.15-1.12-3.81-2.65-5-4.6-1.18-1.95-1.77-4.16-1.77-6.65s.57-4.72,1.7-6.68c1.14-1.96,2.72-3.49,4.76-4.6,2.04-1.1,4.33-1.66,6.89-1.66s4.68,.53,6.65,1.59c1.98,1.06,3.54,2.55,4.69,4.48,1.15,1.93,1.73,4.25,1.73,6.96,0,.28-.02,.6-.05,.96-.03,.36-.06,.69-.09,1h-20.4v-4.25h16.58l-2.85,1.26c.03-1.31-.22-2.44-.75-3.41-.53-.96-1.26-1.72-2.19-2.26-.93-.54-2.02-.82-3.27-.82s-2.34,.27-3.29,.82c-.95,.55-1.69,1.31-2.22,2.29-.53,.98-.79,2.14-.79,3.48v1.12c0,1.4,.31,2.61,.93,3.64,.62,1.03,1.48,1.81,2.57,2.36,1.09,.55,2.4,.82,3.92,.82,1.31,0,2.47-.2,3.48-.61,1.01-.4,1.94-1.01,2.78-1.82l3.88,4.2c-1.15,1.31-2.6,2.31-4.34,3.01-1.74,.7-3.75,1.05-6.02,1.05Z"></path><path class="d" d="M227.62,64.17V29.52h7.28v34.65h-7.28Z"></path><path class="d" d="M254.14,64.54c-2.86,0-5.37-.56-7.52-1.68-2.15-1.12-3.81-2.65-5-4.6-1.18-1.95-1.77-4.16-1.77-6.65s.57-4.72,1.7-6.68c1.14-1.96,2.72-3.49,4.76-4.6,2.04-1.1,4.33-1.66,6.89-1.66s4.68,.53,6.65,1.59c1.98,1.06,3.54,2.55,4.69,4.48,1.15,1.93,1.73,4.25,1.73,6.96,0,.28-.02,.6-.05,.96-.03,.36-.06,.69-.09,1h-20.4v-4.25h16.58l-2.85,1.26c.03-1.31-.22-2.44-.75-3.41-.53-.96-1.26-1.72-2.19-2.26-.93-.54-2.02-.82-3.27-.82s-2.34,.27-3.29,.82c-.95,.55-1.69,1.31-2.22,2.29-.53,.98-.79,2.14-.79,3.48v1.12c0,1.4,.31,2.61,.93,3.64,.62,1.03,1.48,1.81,2.57,2.36,1.09,.55,2.4,.82,3.92,.82,1.31,0,2.47-.2,3.48-.61,1.01-.4,1.94-1.01,2.78-1.82l3.88,4.2c-1.15,1.31-2.6,2.31-4.34,3.01-1.74,.7-3.75,1.05-6.02,1.05Z"></path><path class="d" d="M271.13,73.23V39.05h6.96v5.14l-.14,7.47,.47,7.42v14.15h-7.28Zm14.8-8.69c-2.09,0-3.92-.47-5.51-1.4-1.59-.93-2.82-2.36-3.71-4.27-.89-1.91-1.33-4.33-1.33-7.26s.42-5.38,1.26-7.28c.84-1.9,2.06-3.32,3.67-4.25,1.6-.93,3.48-1.4,5.63-1.4,2.4,0,4.54,.54,6.42,1.61,1.88,1.07,3.38,2.58,4.48,4.51,1.1,1.93,1.66,4.2,1.66,6.82s-.55,4.93-1.66,6.84c-1.11,1.91-2.6,3.41-4.48,4.48-1.88,1.07-4.02,1.61-6.42,1.61Zm-1.21-5.98c1.21,0,2.3-.28,3.25-.84s1.71-1.36,2.29-2.4c.58-1.04,.86-2.28,.86-3.71s-.29-2.71-.86-3.74c-.58-1.03-1.34-1.81-2.29-2.36-.95-.54-2.03-.82-3.25-.82s-2.3,.27-3.27,.82c-.97,.54-1.74,1.33-2.31,2.36-.58,1.03-.86,2.27-.86,3.74s.29,2.67,.86,3.71c.58,1.04,1.35,1.84,2.31,2.4,.96,.56,2.05,.84,3.27,.84Z"></path><path class="d" d="M318.62,38.67c1.99,0,3.77,.4,5.35,1.19,1.57,.79,2.81,2.01,3.71,3.64,.9,1.63,1.35,3.73,1.35,6.28v14.38h-7.28v-13.26c0-2.02-.44-3.52-1.33-4.48-.89-.96-2.14-1.45-3.76-1.45-1.15,0-2.19,.25-3.11,.75-.92,.5-1.63,1.23-2.15,2.19-.51,.97-.77,2.24-.77,3.83v12.42h-7.28V29.52h7.28v16.48l-1.63-2.1c.9-1.68,2.19-2.97,3.88-3.88,1.68-.9,3.6-1.35,5.74-1.35Z"></path><path class="d" d="M343.37,64.54c-1.93,0-3.6-.33-5-1-1.4-.67-2.48-1.58-3.25-2.73-.76-1.15-1.14-2.44-1.14-3.88s.37-2.76,1.1-3.9c.73-1.14,1.89-2.01,3.48-2.64,1.59-.62,3.67-.93,6.26-.93h6.63v4.2h-5.88c-1.71,0-2.89,.28-3.53,.84-.64,.56-.96,1.26-.96,2.1,0,.93,.37,1.67,1.1,2.22,.73,.55,1.72,.82,2.96,.82s2.36-.28,3.34-.84,1.67-1.42,2.08-2.57l1.12,3.41c-.53,1.56-1.49,2.76-2.89,3.62-1.4,.86-3.21,1.28-5.42,1.28Zm7.66-.37v-4.9l-.47-1.07v-8.78c0-1.56-.47-2.77-1.42-3.64-.95-.87-2.4-1.31-4.37-1.31-1.34,0-2.65,.21-3.95,.63s-2.4,.99-3.34,1.7l-2.57-5.09c1.37-1,3.02-1.75,4.95-2.26,1.93-.51,3.89-.77,5.88-.77,3.83,0,6.8,.9,8.92,2.71,2.12,1.81,3.17,4.62,3.17,8.45v14.33h-6.82Z"></path><path class="d" d="M379.69,38.67c1.99,0,3.77,.4,5.35,1.19,1.57,.79,2.81,2.01,3.71,3.64,.9,1.63,1.35,3.73,1.35,6.28v14.38h-7.28v-13.26c0-2.02-.44-3.52-1.33-4.48-.89-.96-2.14-1.45-3.76-1.45-1.15,0-2.19,.25-3.1,.75-.92,.5-1.63,1.23-2.15,2.19-.51,.97-.77,2.24-.77,3.83v12.42h-7.28v-25.12h6.96v6.96l-1.31-2.1c.9-1.68,2.19-2.97,3.88-3.88,1.68-.9,3.6-1.35,5.74-1.35Z"></path><path class="d" d="M393.7,45.21v-5.6h17.42v5.6h-17.42Zm13.26,19.33c-2.96,0-5.26-.75-6.91-2.26-1.65-1.51-2.47-3.76-2.47-6.75v-22.04h7.33v21.9c0,1.06,.27,1.88,.82,2.47,.54,.59,1.28,.89,2.22,.89,1.18,0,2.18-.31,2.99-.93l1.92,5.14c-.72,.53-1.6,.93-2.64,1.19s-2.12,.4-3.25,.4Z"></path><path class="d" d="M425.45,64.54c-2.15,0-4.2-.26-6.16-.77-1.96-.51-3.53-1.16-4.72-1.94l2.38-5.18c1.18,.68,2.56,1.25,4.13,1.7,1.57,.45,3.12,.68,4.65,.68,1.68,0,2.87-.2,3.57-.61,.7-.4,1.05-.96,1.05-1.68,0-.59-.27-1.03-.82-1.33-.54-.3-1.26-.52-2.15-.68s-1.88-.31-2.96-.47-2.17-.37-3.25-.65c-1.07-.28-2.07-.68-2.99-1.19-.92-.51-1.65-1.22-2.19-2.12-.55-.9-.82-2.07-.82-3.5,0-1.59,.47-3,1.4-4.23,.93-1.23,2.26-2.19,3.97-2.87,1.71-.68,3.78-1.03,6.21-1.03,1.74,0,3.49,.19,5.25,.58,1.76,.39,3.25,.93,4.46,1.61l-2.47,5.18c-1.18-.68-2.39-1.17-3.62-1.45-1.23-.28-2.4-.42-3.53-.42-1.68,0-2.89,.22-3.64,.65-.75,.44-1.12,1-1.12,1.68,0,.62,.28,1.1,.84,1.42s1.29,.57,2.19,.72c.9,.16,1.9,.31,2.99,.47,1.09,.16,2.16,.37,3.22,.65,1.06,.28,2.05,.68,2.96,1.19,.92,.51,1.65,1.22,2.19,2.12,.54,.9,.82,2.07,.82,3.5,0,1.53-.47,2.89-1.4,4.09-.93,1.2-2.28,2.14-4.04,2.83-1.76,.68-3.9,1.03-6.42,1.03Z"></path><path class="d" d="M201.8,91.58c-1.37,0-2.48-.39-3.32-1.17-.84-.78-1.26-1.74-1.26-2.9s.42-2.12,1.26-2.9c.84-.78,1.95-1.17,3.32-1.17s2.44,.37,3.29,1.1c.86,.73,1.28,1.67,1.28,2.82,0,1.21-.42,2.22-1.26,3.01-.84,.79-1.95,1.19-3.31,1.19Zm-3.64,28.62v-25.12h7.28v25.12h-7.28Z"></path><path class="d" d="M227.48,94.71c1.99,0,3.77,.4,5.35,1.19,1.57,.79,2.81,2.01,3.71,3.64,.9,1.63,1.35,3.73,1.35,6.28v14.38h-7.28v-13.26c0-2.02-.44-3.52-1.33-4.48-.89-.96-2.14-1.45-3.76-1.45-1.15,0-2.19,.25-3.11,.75-.92,.5-1.63,1.23-2.15,2.19-.51,.97-.77,2.24-.77,3.83v12.42h-7.28v-25.12h6.96v6.96l-1.31-2.1c.9-1.68,2.19-2.97,3.88-3.88,1.68-.9,3.6-1.35,5.74-1.35Z"></path><path class="d" d="M254.7,101.24v-5.6h17.42v5.6h-17.42Zm13.26,19.33c-2.96,0-5.26-.75-6.91-2.26-1.65-1.51-2.47-3.76-2.47-6.75v-22.04h7.33v21.9c0,1.06,.27,1.88,.82,2.47,.54,.59,1.28,.89,2.22,.89,1.18,0,2.18-.31,2.99-.93l1.91,5.14c-.72,.53-1.6,.93-2.64,1.19-1.04,.26-2.12,.4-3.25,.4Z"></path><path class="d" d="M293.27,94.71c1.99,0,3.77,.4,5.35,1.19,1.57,.79,2.81,2.01,3.71,3.64,.9,1.63,1.35,3.73,1.35,6.28v14.38h-7.28v-13.26c0-2.02-.44-3.52-1.33-4.48-.89-.96-2.14-1.45-3.76-1.45-1.15,0-2.19,.25-3.11,.75-.92,.5-1.63,1.23-2.15,2.19-.51,.97-.77,2.24-.77,3.83v12.42h-7.28v-34.65h7.28v16.48l-1.63-2.1c.9-1.68,2.19-2.97,3.88-3.88,1.68-.9,3.6-1.35,5.74-1.35Z"></path><path class="d" d="M322.92,120.57c-2.86,0-5.37-.56-7.52-1.68-2.15-1.12-3.81-2.65-5-4.6-1.18-1.94-1.77-4.16-1.77-6.65s.57-4.72,1.7-6.68c1.14-1.96,2.72-3.49,4.76-4.6,2.04-1.1,4.33-1.66,6.89-1.66s4.68,.53,6.65,1.59c1.98,1.06,3.54,2.55,4.69,4.48,1.15,1.93,1.73,4.25,1.73,6.96,0,.28-.02,.6-.05,.96-.03,.36-.06,.69-.09,1h-20.41v-4.25h16.58l-2.85,1.26c.03-1.31-.22-2.44-.75-3.41-.53-.97-1.26-1.72-2.19-2.26-.93-.54-2.02-.82-3.27-.82s-2.34,.27-3.29,.82c-.95,.55-1.69,1.31-2.22,2.29-.53,.98-.79,2.14-.79,3.48v1.12c0,1.4,.31,2.61,.93,3.64,.62,1.03,1.48,1.81,2.57,2.36,1.09,.55,2.4,.82,3.92,.82,1.31,0,2.47-.2,3.48-.61,1.01-.4,1.94-1.01,2.78-1.82l3.88,4.2c-1.15,1.31-2.6,2.31-4.34,3.01s-3.75,1.05-6.02,1.05Z"></path><path class="d" d="M353.13,120.2v-25.12h6.96v7.14l-.98-2.1c.75-1.77,1.95-3.12,3.6-4.04,1.65-.92,3.66-1.38,6.02-1.38v6.77c-.28-.06-.55-.11-.82-.14-.26-.03-.52-.05-.77-.05-2.05,0-3.69,.58-4.9,1.73-1.21,1.15-1.82,2.93-1.82,5.32v11.86h-7.28Z"></path><path class="d" d="M384.74,120.57c-2.65,0-5-.56-7.07-1.68-2.07-1.12-3.7-2.65-4.88-4.6-1.18-1.94-1.77-4.16-1.77-6.65s.59-4.75,1.77-6.7c1.18-1.95,2.81-3.47,4.88-4.58,2.07-1.1,4.43-1.66,7.07-1.66s5.06,.55,7.14,1.66c2.09,1.1,3.72,2.63,4.9,4.58,1.18,1.95,1.77,4.18,1.77,6.7s-.59,4.75-1.77,6.68c-1.18,1.93-2.82,3.46-4.9,4.58-2.09,1.12-4.47,1.68-7.14,1.68Zm0-5.98c1.24,0,2.34-.27,3.29-.82,.95-.54,1.71-1.35,2.29-2.4,.58-1.06,.86-2.3,.86-3.74s-.29-2.71-.86-3.74c-.58-1.03-1.34-1.81-2.29-2.36-.95-.54-2.03-.82-3.25-.82s-2.3,.27-3.27,.82-1.74,1.33-2.31,2.36c-.58,1.03-.86,2.27-.86,3.74s.29,2.68,.86,3.74c.58,1.06,1.35,1.86,2.31,2.4,.97,.55,2.04,.82,3.22,.82Z"></path><path class="d" d="M415.32,120.57c-2.65,0-5-.56-7.07-1.68-2.07-1.12-3.7-2.65-4.88-4.6-1.18-1.94-1.77-4.16-1.77-6.65s.59-4.75,1.77-6.7c1.18-1.95,2.81-3.47,4.88-4.58,2.07-1.1,4.43-1.66,7.07-1.66s5.06,.55,7.14,1.66c2.09,1.1,3.72,2.63,4.9,4.58,1.18,1.95,1.77,4.18,1.77,6.7s-.59,4.75-1.77,6.68c-1.18,1.93-2.82,3.46-4.9,4.58-2.09,1.12-4.47,1.68-7.14,1.68Zm0-5.98c1.24,0,2.34-.27,3.29-.82,.95-.54,1.71-1.35,2.29-2.4s.86-2.3,.86-3.74-.29-2.71-.86-3.74c-.58-1.03-1.34-1.81-2.29-2.36-.95-.54-2.03-.82-3.25-.82s-2.3,.27-3.27,.82-1.74,1.33-2.31,2.36c-.58,1.03-.86,2.27-.86,3.74s.29,2.68,.86,3.74c.58,1.06,1.35,1.86,2.31,2.4,.97,.55,2.04,.82,3.22,.82Z"></path><path class="d" d="M466.17,94.71c1.99,0,3.76,.4,5.3,1.19,1.54,.79,2.75,2.01,3.62,3.64,.87,1.63,1.31,3.73,1.31,6.28v14.38h-7.28v-13.26c0-2.02-.41-3.52-1.24-4.48-.83-.96-1.98-1.45-3.48-1.45-1.09,0-2.05,.24-2.9,.72-.84,.48-1.49,1.2-1.94,2.15-.45,.95-.68,2.19-.68,3.71v12.61h-7.28v-13.26c0-2.02-.41-3.52-1.24-4.48-.83-.96-2.02-1.45-3.57-1.45-1.06,0-2.01,.24-2.85,.72-.84,.48-1.49,1.2-1.96,2.15-.47,.95-.7,2.19-.7,3.71v12.61h-7.28v-25.12h6.96v6.82l-1.31-1.96c.84-1.71,2.07-3.01,3.69-3.9,1.62-.89,3.44-1.33,5.46-1.33,2.3,0,4.33,.58,6.07,1.75,1.74,1.17,2.89,2.95,3.46,5.35l-2.57-.7c.84-1.93,2.18-3.48,4.02-4.65,1.84-1.17,3.97-1.75,6.4-1.75Z"></path></g><g><path class="c" d="M97.78,119.21c-6.65-10.28-23.23-16.02-37.44-18.47-.41-.07-.73-.47-.67-.88,.63-3.98,9.14-10.21,9.14-10.21,0,0-28.3-2.11-32.23-28.84-3.93-26.73,20.85-35.51,33.02-35.55,5.9-.02,10.57,.7,19.66,4.5,2.47,1.03,.4,6.26-2.44,5.33-5.59-1.83-13.34-4.98-24.02-1.42-6.55,2.18-15.6,10.25-8.92,22.82,6.68,12.58,25.55,9.43,37.74,5.5,12.19-3.93,25.03-13.47,54.66,3.66,1.74,1.01,4.94,2.19,10.24,1.32C152.52,30.71,121.79,2.5,84.47,2.5,44.43,2.5,11.97,34.96,11.97,75s32.46,72.5,72.5,72.5c6.08,0,11.97-.76,17.61-2.17,1.22-5.43,1.79-16.71-4.29-26.12Z"></path><path class="b" d="M146.27,65.65c-29.62-17.13-42.47-7.59-54.66-3.66-12.19,3.93-31.06,7.08-37.74-5.5-6.68-12.58,2.37-20.64,8.92-22.82,10.68-3.56,18.44-.4,24.02,1.42,2.84,.93,4.91-4.3,2.44-5.33-9.09-3.79-13.76-4.52-19.66-4.5-12.17,.04-36.95,8.82-33.02,35.55,3.93,26.73,32.23,28.84,32.23,28.84,0,0-8.51,6.23-9.14,10.21-.06,.41,.26,.81,.67,.88,14.2,2.45,30.79,8.19,37.44,18.47,6.08,9.41,5.52,20.69,4.29,26.12h-.01c31.53-7.86,54.9-36.37,54.9-70.33,0-2.71-.16-5.39-.45-8.03-5.3,.88-8.5-.31-10.24-1.32Z"></path><ellipse class="c" cx="111.08" cy="74.38" rx="4.14" ry="4.96" transform="translate(16.15 168.5) rotate(-78.56)"></ellipse></g></svg>